<?xml version="1.0" ?><svg xmlns="http://www.w3.org/2000/svg" xmlns:xlink="http://www.w3.org/1999/xlink" version="1.1" viewBox="0 0 512 512" style="enable-background:new 0 0 512 512;" xml:space="preserve"><g id="_x32_2_x2C__Target_x2C__Define_x2C__Targeting_x2C__Fps_x2C__Dart_Board"><g><g><path d="M501,246h-15.229C480.683,126.837,385.147,31.317,266,26.229V11c0-5.523-4.477-10-10-10s-10,4.477-10,10v15.229     C126.837,31.317,31.317,126.852,26.229,246H11c-5.523,0-10,4.477-10,10s4.477,10,10,10h15.229     C31.317,385.163,126.853,480.683,246,485.771V501c0,5.523,4.477,10,10,10s10-4.477,10-10v-15.229     C385.163,480.683,480.683,385.147,485.771,266H501c5.523,0,10-4.477,10-10S506.523,246,501,246z M401,266h14.678     C410.703,346.274,346.274,410.703,266,415.678V401c0-5.523-4.477-10-10-10s-10,4.477-10,10v14.678     C165.726,410.703,101.297,346.274,96.322,266H111c5.523,0,10-4.477,10-10s-4.477-10-10-10H96.322     C101.297,165.726,165.726,101.297,246,96.322V111c0,5.523,4.477,10,10,10s10-4.477,10-10V96.322     c80.274,4.976,144.703,69.404,149.678,149.678H401c-5.523,0-10,4.477-10,10S395.477,266,401,266z M246,46.244v30.039     C154.693,81.307,81.307,154.693,76.282,246H46.244C51.326,138.146,138.146,51.326,246,46.244z M266,465.756v-30.039     c91.307-5.025,164.693-78.41,169.718-169.718h30.039C460.674,373.854,373.854,460.674,266,465.756z"/><path d="M351,246h-15.647c-4.528-36.128-33.225-64.824-69.353-69.353V161c0-5.523-4.477-10-10-10s-10,4.477-10,10v15.647     c-36.128,4.528-64.824,33.225-69.353,69.353H161c-5.523,0-10,4.477-10,10s4.477,10,10,10h15.647     c4.528,36.128,33.225,64.824,69.353,69.353V351c0,5.523,4.477,10,10,10s10-4.477,10-10v-15.647     c36.128-4.528,64.824-33.225,69.353-69.353H351c5.523,0,10-4.477,10-10S356.523,246,351,246z M266,315.151V301     c0-5.523-4.477-10-10-10s-10,4.477-10,10v14.151c-25.084-4.228-44.923-24.067-49.151-49.151H211c5.523,0,10-4.477,10-10     s-4.477-10-10-10h-14.151c4.228-25.084,24.067-44.923,49.151-49.151V211c0,5.523,4.477,10,10,10s10-4.477,10-10v-14.151     c25.084,4.228,44.923,24.067,49.151,49.151H301c-5.523,0-10,4.477-10,10s4.477,10,10,10h14.151     C310.923,291.084,291.084,310.923,266,315.151z"/><circle cx="256" cy="255.98" r="9.922"/></g></g></g><g id="Layer_1"/></svg>