<?xml version="1.0" ?><svg data-name="Layer 1" id="Layer_1" viewBox="0 0 512 512" xmlns="http://www.w3.org/2000/svg"><title/><path d="M256,64.6C150.46,64.6,64.6,150.46,64.6,256S150.46,447.4,256,447.4,447.4,361.54,447.4,256,361.54,64.6,256,64.6Zm0,366.8c-96.72,0-175.4-78.68-175.4-175.4S159.28,80.6,256,80.6,431.4,159.28,431.4,256,352.72,431.4,256,431.4ZM392.13,177.77c-43.13-75.07-139.3-101-214.36-57.9C103.54,162.52,77.33,257,118.45,331.7l.1.17c.43.79.87,1.58,1.32,2.36A157,157,0,0,0,392.13,177.77Zm-206.39-44c67.42-38.74,153.78-15.41,192.52,52A139.83,139.83,0,0,1,395.81,274l-86.5-31.48a47.62,47.62,0,0,0-46.73-40.38H249.34a47.62,47.62,0,0,0-46.73,40.38L116.15,274A141.22,141.22,0,0,1,185.74,133.74ZM382.63,318l-72.81-26.5V259.75l83,30.19c-.23.94-.47,1.88-.72,2.81A143.45,143.45,0,0,1,382.63,318Zm-253.29,0a140.56,140.56,0,0,1-10.22-28l83-30.19v31.74Zm7.95,14.14,65.93-24A47.3,47.3,0,0,0,218.91,334,16.93,16.93,0,0,1,225,346.92v46.57A140.67,140.67,0,0,1,137.29,332.11Zm103.75,64c0-.06,0-.13,0-.19v-49a32.9,32.9,0,0,0-11.8-25.16A31.2,31.2,0,0,1,218.1,297.9V248.54a31.47,31.47,0,0,1,31.24-30.39h13.24a31.47,31.47,0,0,1,31.24,30.41c0,.28,0,.56,0,.83V297.9a31.22,31.22,0,0,1-11.12,23.86,32.91,32.91,0,0,0-11.81,25.16v48.51c0,.26,0,.52,0,.78A140.2,140.2,0,0,1,241,396.15Zm85.22-17.89a140.33,140.33,0,0,1-39.37,15.34V346.92A16.94,16.94,0,0,1,293,334a47.3,47.3,0,0,0,15.69-25.87l66,24A140.12,140.12,0,0,1,326.26,378.26ZM286.87,256A30.92,30.92,0,1,0,256,286.93,30.95,30.95,0,0,0,286.87,256ZM256,270.93A14.92,14.92,0,1,1,270.87,256,14.93,14.93,0,0,1,256,270.93Z"/></svg>